<?xml version="1.0" encoding="UTF-8"?>
<svg id="Capa_2" data-name="Capa 2" xmlns="http://www.w3.org/2000/svg" viewBox="0 0 961.16 447.83">
  <defs>
    <style>
      .cls-1, .cls-2 {
        fill: #fff;
      }

      .cls-3 {
        fill: #c60912;
      }

      .cls-3, .cls-2 {
        font-family: DancingScript-Regular, 'Dancing Script';
        font-size: 88.38px;
        font-variation-settings: 'wght' 400;
      }
    </style>
  </defs>
  <g id="documento">
    <g>
      <path class="cls-1" d="m252.07,190.5v131.44H0v-127.84c0-21.61,6.3-39.37,18.91-53.29,12.6-13.92,28.51-20.89,47.71-20.89,12.24,0,23.53,2.82,33.85,8.46,10.32,5.64,18.37,13.15,24.13,22.51,5.76-10.56,13.93-18.96,24.49-25.21,10.57-6.24,22.21-9.36,34.93-9.36,19.45,0,35.65,7.02,48.61,21.06,12.96,14.05,19.45,31.75,19.45,53.12Zm-198.78,7.56v69.86h46.45v-70.22c0-6.72-2.4-12.36-7.2-16.92-4.8-4.56-10.68-6.84-17.64-6.84-6.24,0-11.4,2.28-15.48,6.84-4.08,4.56-6.12,10.32-6.12,17.28Zm98.31-.36v70.22h47.17v-73.46c0-6.72-2.16-12.42-6.48-17.11-4.32-4.68-9.6-7.02-15.84-7.02-7.2,0-13.14,2.58-17.83,7.74-4.68,5.16-7.02,11.7-7.02,19.62Z"/>
      <path class="cls-1" d="m339.76,321.94h-54.02V105.88c0-19.89,16.12-36.01,36.01-36.01h18.01v252.07Z"/>
      <path class="cls-1" d="m512.88,229.39l61.22,92.55h-62.3l-57.26-86.43h-28.45v86.43h-54.02V105.88c0-19.89,16.12-36.01,36.01-36.01h75.26c26.4,0,48.13,7.69,65.18,23.05,17.04,15.37,25.57,35.65,25.57,60.86,0,19.21-5.64,35.77-16.92,49.69-11.29,13.93-26.05,22.57-44.29,25.93Zm-33.13-106.23h-53.66v59.42h53.66c10.56,0,19.38-2.88,26.47-8.64,7.08-5.76,10.62-12.96,10.62-21.61s-3.48-15.36-10.44-20.89c-6.97-5.52-15.84-8.28-26.65-8.28Z"/>
      <path class="cls-1" d="m695.1,321.94V105.88c0-19.89,16.12-36.01,36.01-36.01h18.01v99.03h105.51v-63.02c0-19.89,16.12-36.01,36.01-36.01h18.01v252.07h-54.02v-99.75h-105.51v99.75h-54.02Z"/>
      <g>
        <text class="cls-2" transform="translate(261.13 422.73)"><tspan x="0" y="0">Studio &amp;</tspan></text>
        <text class="cls-3" transform="translate(540.64 422.73)"><tspan x="0" y="0" xml:space="preserve"> Públicidad</tspan></text>
      </g>
      <path class="cls-1" d="m750.15,0v53.3h-88.73v268.64h-54.02V53.3h-321.66v-17.28c0-19.9,16.11-36.01,36.01-36.01h428.4Z"/>
      <g>
        <path class="cls-1" d="m957.04,319c-1.86.81-3.68,1.73-5.49,2.67-1.1.57-1.81.23-2.31-.79-.55-1.11-1.08-2.24-1.6-3.37-.21-.46-.39-.84-1.04-.68-1.05.26-1.61-.38-1.89-1.28-.28-.9.21-1.44.97-1.8-1.41-2.92-3.87-4.51-6.82-5.44-.83-.26-1.35-.57-1.32-1.63.14-5.84.2-11.68.29-17.51,0-.16.14-.32.33-.75.73,1.52,1.36,2.83,2,4.14,1,2.07,1.99,4.16,3.01,6.22.35.71.53,1.28.11,2.11-.69,1.37-.04,2.65,1.39,3.21,1.13.44,2.67-.2,3.09-1.28.52-1.35-.16-3.04-1.6-3.31-1-.19-1.34-.75-1.69-1.49-1.5-3.11-3-6.22-4.5-9.34-.12-.24-.21-.49-.08-.93,1.38,1.03,2.77,2.05,4.14,3.09,3.36,2.57,6.7,5.17,10.08,7.71.77.58,1,1.07.6,2.02-1.2,2.91-1.44,5.89-.11,8.88h0s0,0,0,0c.8-.35,1.56-.48,2.07.46.43.8.73,1.6-.28,2.22-.63.39-.32.91-.1,1.38.51,1.08,1.02,2.16,1.55,3.24.51,1.04.38,1.75-.79,2.26Z"/>
        <path class="cls-1" d="m959.32,293.76c-.32.21-.67.37-1.04.5l-2.34,1.13-2.55-5.28,1.61-.78c-3.05-5.75-9.49-8.61-15.56-7.24l.48,1-1.38.67c-.11.07-.23.14-.35.19-.73.35-1.45.7-2.17,1.06-.18.09-.36.17-.53.21l-.79.38-.5-1.04s-.03-.03-.04-.04c-5.18,3.87-7.11,10.99-4.33,17.14l1.51-.73,2.55,5.28-5.22,2.52-2.55-5.28,1.38-.66c-3.38-7.43-.97-16.06,5.44-20.6-.02-.11-.03-.21-.03-.31l-.75-1.55,5.22-2.52.91,1.88c7.39-1.95,15.37,1.48,19.05,8.53l1.28-.62,2.55,5.28-1.84.89Z"/>
      </g>
    </g>
  </g>
</svg>