<?xml version="1.0" encoding="UTF-8"?>
<svg id="Capa_2" data-name="Capa 2" xmlns="http://www.w3.org/2000/svg" viewBox="0 0 288.96 361.42">
  <defs>
    <style>
      .cls-1 {
        fill: #c60912;
        stroke: #231f20;
        stroke-miterlimit: 10;
        stroke-width: 3.72px;
      }
    </style>
  </defs>
  <g id="documento">
    <g>
      <path class="cls-1" d="m253.17,335.75c-15.07,6.57-29.79,13.98-44.38,21.57-8.86,4.61-14.62,1.89-18.73-6.38-4.48-9.01-8.74-18.14-12.98-27.26-1.72-3.69-3.18-6.83-8.43-5.54-8.48,2.08-13-3.05-15.3-10.37-2.29-7.28,1.72-11.64,7.82-14.57-11.38-23.62-31.27-36.46-55.14-44.03-6.75-2.14-10.91-4.64-10.71-13.18,1.1-47.22,1.58-94.46,2.36-141.69.02-1.32,1.1-2.62,2.64-6.03,5.92,12.28,11.04,22.9,16.16,33.51,8.09,16.79,16.07,33.63,24.33,50.33,2.83,5.71,4.32,10.33.92,17.04-5.61,11.04-.32,21.47,11.21,25.97,9.1,3.55,21.62-1.64,25.01-10.36,4.24-10.92-1.32-24.63-12.93-26.8-8.13-1.52-10.81-6.08-13.69-12.07-12.12-25.19-24.3-50.34-36.43-75.53-.93-1.93-1.67-3.96-.65-7.56,11.18,8.33,22.44,16.56,33.52,25.02,27.19,20.77,54.19,41.79,81.53,62.36,6.2,4.66,8.07,8.64,4.88,16.37-9.72,23.57-11.69,47.67-.9,71.87h0s0,0,0,0c6.45-2.85,12.63-3.86,16.74,3.74,3.48,6.44,5.91,12.91-2.24,17.98-5.12,3.18-2.59,7.35-.8,11.17,4.1,8.77,8.28,17.5,12.53,26.19,4.1,8.39,3.09,14.14-6.35,18.26Z"/>
      <path class="cls-1" d="m271.57,131.58c-2.61,1.7-5.45,3-8.4,4.05l-18.91,9.11-20.59-42.72,13.05-6.29c-24.64-46.51-76.8-69.66-125.92-58.58l3.88,8.05-11.2,5.4c-.87.59-1.84,1.11-2.81,1.57-5.89,2.8-11.77,5.63-17.57,8.6-1.47.75-2.89,1.35-4.26,1.71l-6.36,3.07-4.04-8.38c-.11-.13-.22-.22-.32-.35-41.92,31.35-57.48,88.89-35.05,138.67l12.25-5.9,20.59,42.72-42.21,20.35L3.09,209.94l11.14-5.37C-13.14,144.46,6.4,74.64,58.21,37.9c-.13-.87-.23-1.71-.27-2.49l-6.06-12.57L94.09,2.48l7.33,15.2c59.75-15.77,124.34,11.94,154.13,68.98l10.34-4.98,20.59,42.72-14.9,7.18Z"/>
    </g>
  </g>
</svg>